<?xml version="1.0" encoding="iso-8859-1"?>
<!-- Uploaded to: SVG Repo, www.svgrepo.com, Generator: SVG Repo Mixer Tools -->
<svg height="800px" width="800px" version="1.1" id="Layer_1" xmlns="http://www.w3.org/2000/svg" xmlns:xlink="http://www.w3.org/1999/xlink" 
	 viewBox="0 0 361.786 361.786" xml:space="preserve">
<g>
	<path style="fill:#007348;" d="M223.69,211.422c-6.629,0-12.721-4.374-14.609-11.069l-10.597-37.548
		c-2.109-7.474,1.758-15.333,8.966-18.225l33.679-13.5c7.785-3.123,16.628,0.66,19.749,8.446c3.122,7.786-0.66,16.63-8.446,19.75
		l-21.004,8.42l6.887,24.407c2.279,8.072-2.42,16.466-10.492,18.743C226.444,211.237,225.056,211.422,223.69,211.422z"/>
	<path style="fill:#007348;" d="M125.593,211.422c-6.629,0-12.721-4.374-14.609-11.069l-10.597-37.548
		c-2.109-7.474,1.759-15.333,8.966-18.225l33.679-13.5c7.785-3.123,16.628,0.66,19.749,8.446c3.122,7.786-0.66,16.63-8.446,19.75
		l-21.003,8.42l6.887,24.407c2.279,8.072-2.419,16.466-10.492,18.743C128.348,211.237,126.959,211.422,125.593,211.422z"/>
	<g>
		<path style="fill:#65513C;" d="M361.786,186.105H0v38.187h258.534l34.38,34.381c1.357,1.357,3.136,2.034,4.915,2.034
			c1.778,0,3.558-0.677,4.915-2.034c2.715-2.715,2.715-7.117,0-9.832l-24.55-24.549h83.592L361.786,186.105L361.786,186.105z"/>
		<path style="fill:#00945E;" d="M292.373,238.469c-10.267,10.266-10.267,26.906,0,37.173c10.264,10.268,26.907,10.268,37.173,0
			L292.373,238.469z"/>
	</g>
	<path style="fill:#05CE7C;" d="M305.605,62.869c-15.373-18.734-37.723-31.528-63.08-34.403c-0.001,0-0.002,0-0.003,0
		c-0.443-0.065-0.895-0.096-1.355-0.096c-5.309,0-9.614,4.303-9.614,9.612v29.45c-15.624-7.523-33.14-11.738-51.642-11.738h-32.469
		c-65.828,0-119.192,53.363-119.192,119.191v80.689c0,42.922,34.919,77.842,77.842,77.842c35.942,0,65.185-29.241,65.185-65.184
		c0-30.361-24.7-55.061-55.059-55.061c-25.893,0-46.958,21.066-46.958,46.959c0,22.319,18.158,40.478,40.477,40.478
		c8.039,0,14.556-6.517,14.556-14.556c0-8.04-6.518-14.557-14.556-14.557c-6.267,0-11.367-5.099-11.367-11.366
		c0-9.84,8.006-17.847,17.847-17.847c14.308,0,25.947,11.64,25.947,25.948c0,19.89-16.183,36.072-36.073,36.072
		c-26.87,0-48.731-21.861-48.731-48.73v-80.689h244.402c30.972,0,56.081-25.11,56.081-56.082
		C357.844,89.126,334.783,64.846,305.605,62.869z"/>
	<path style="fill:#00945E;" d="M201.879,211.422c-6.629,0-12.722-4.374-14.61-11.069l-10.596-37.548
		c-2.109-7.474,1.759-15.333,8.965-18.225l33.679-13.5c7.786-3.123,16.629,0.66,19.75,8.446s-0.66,16.63-8.446,19.75l-21.003,8.42
		l6.887,24.407c2.279,8.072-2.419,16.466-10.493,18.743C204.633,211.237,203.244,211.422,201.879,211.422z"/>
	<path style="fill:#00945E;" d="M103.782,211.422c-6.629,0-12.721-4.374-14.61-11.069l-10.596-37.548
		c-2.11-7.474,1.758-15.333,8.965-18.225l33.678-13.5c7.785-3.123,16.629,0.66,19.75,8.446c3.121,7.786-0.66,16.63-8.446,19.75
		l-21.003,8.42l6.886,24.407c2.279,8.072-2.419,16.466-10.492,18.743C106.536,211.237,105.147,211.422,103.782,211.422z"/>
	<g>
		<circle style="fill:#00945E;" cx="290.893" cy="102.036" r="17.275"/>
		<circle style="fill:#333E48;" cx="285.45" cy="97.35" r="5.011"/>
	</g>
	<g>
		<circle style="fill:#28B07F;" cx="116.279" cy="87.547" r="2.785"/>
		<circle style="fill:#28B07F;" cx="123.533" cy="67.579" r="2.786"/>
		<circle style="fill:#28B07F;" cx="85.499" cy="90.333" r="2.785"/>
		<path style="fill:#28B07F;" d="M100.624,78.722c0-1.54-1.247-2.787-2.785-2.787s-2.786,1.247-2.786,2.787
			c0,1.536,1.248,2.784,2.786,2.784S100.624,80.258,100.624,78.722z"/>
		<circle style="fill:#28B07F;" cx="139.279" cy="73.149" r="2.785"/>
		<circle style="fill:#28B07F;" cx="206.951" cy="67.579" r="2.785"/>
		<circle style="fill:#28B07F;" cx="200.696" cy="87.545" r="2.785"/>
		<circle style="fill:#28B07F;" cx="147.635" cy="84.761" r="2.785"/>
		<circle style="fill:#28B07F;" cx="163.676" cy="66.313" r="2.785"/>
		<path style="fill:#28B07F;" d="M188.585,70.364c0-1.539-1.247-2.787-2.785-2.787c-1.538,0-2.785,1.248-2.785,2.787
			c0,1.536,1.247,2.785,2.785,2.785C187.337,73.149,188.585,71.9,188.585,70.364z"/>
		<circle style="fill:#28B07F;" cx="176.1" cy="84.761" r="2.785"/>
	</g>
</g>
</svg>