<?xml version="1.0" ?>

<!-- Uploaded to: SVG Repo, www.svgrepo.com, Generator: SVG Repo Mixer Tools -->
<svg fill="#FFFFFF" width="800px" height="800px" viewBox="0 0 64 64" version="1.1" xml:space="preserve" xmlns="http://www.w3.org/2000/svg" xmlns:xlink="http://www.w3.org/1999/xlink">

<g id="smart_lamp"/>

<g id="e-wallet"/>

<g id="virtual_reality"/>

<g id="payment"/>

<g id="cloud_storage"/>

<g id="security_camera"/>

<g id="smart_home"/>

<g id="connection"/>

<g id="game"/>

<g id="drone"/>

<g id="smart_car"/>

<g id="camera"/>

<g id="online_business"/>

<g id="smartwatch"/>

<g id="online_shopping"/>

<g id="smart_Television"/>

<g id="security"/>

<g id="communication">

<g>

<path d="M35,30c2.2,0,4-1.8,4-4s-1.8-4-4-4c-2.2,0-4,1.8-4,4S32.8,30,35,30z M35,24c1.1,0,2,0.9,2,2s-0.9,2-2,2s-2-0.9-2-2    S33.9,24,35,24z"/>

<path d="M24,30c2.2,0,4-1.8,4-4s-1.8-4-4-4s-4,1.8-4,4S21.8,30,24,30z M24,24c1.1,0,2,0.9,2,2s-0.9,2-2,2s-2-0.9-2-2    S22.9,24,24,24z"/>

<path d="M13,22c-2.2,0-4,1.8-4,4s1.8,4,4,4s4-1.8,4-4S15.2,22,13,22z M13,28c-1.1,0-2-0.9-2-2s0.9-2,2-2s2,0.9,2,2S14.1,28,13,28z    "/>

<path d="M60.3,9.1c-0.4-0.1-0.8,0-1.1,0.3l-8.5,10.2C50,20.5,48.8,21,47.7,21H45v-6c0-3.3-2.7-6-6-6H9c-3.3,0-6,2.7-6,6v39    c0,0.4,0.3,0.8,0.7,0.9C3.8,55,3.9,55,4,55c0.3,0,0.6-0.1,0.8-0.4l8.5-10.2c0.8-0.9,1.9-1.4,3.1-1.4H19v6c0,3.3,2.7,6,6,6h30    c3.3,0,6-2.7,6-6V10C61,9.6,60.7,9.2,60.3,9.1z M11.7,43.2L5,51.2V15c0-2.2,1.8-4,4-4h30c2.2,0,4,1.8,4,4v22c0,2.2-1.8,4-4,4H16.3    C14.6,41,12.9,41.8,11.7,43.2z M59,49c0,2.2-1.8,4-4,4H25c-2.2,0-4-1.8-4-4v-6h18c3.3,0,6-2.7,6-6V23h2.7c1.8,0,3.5-0.8,4.6-2.2    l6.7-8.1V49z"/>

<path d="M47,38c0,2.2,1.8,4,4,4s4-1.8,4-4s-1.8-4-4-4S47,35.8,47,38z M53,38c0,1.1-0.9,2-2,2s-2-0.9-2-2s0.9-2,2-2S53,36.9,53,38z    "/>

</g>

</g>

<g id="remote_control"/>

<g id="satelite_dish"/>

</svg>